<?xml version="1.0" encoding="UTF-8"?>
<svg version="1.1" xmlns="http://www.w3.org/2000/svg" width="1320" height="1000">
<path d="M0 0 C435.6 0 871.2 0 1320 0 C1320 330 1320 660 1320 1000 C884.4 1000 448.8 1000 0 1000 C0 670 0 340 0 0 Z " fill="#FEFEFE" transform="translate(0,0)"/>
<path d="M0 0 C0.63292969 0.39832031 1.26585937 0.79664063 1.91796875 1.20703125 C2.62308594 1.61566406 3.32820313 2.02429688 4.0546875 2.4453125 C6.05602128 3.64019385 7.98943789 4.89868873 9.91796875 6.20703125 C10.78421875 6.78453125 11.65046875 7.36203125 12.54296875 7.95703125 C16.06248173 11.29130671 18.48966129 15.02901184 20.91796875 19.20703125 C21.33691406 19.9134375 21.75585938 20.61984375 22.1875 21.34765625 C26.34085745 29.7424282 26.92110929 41.35904923 24.29394531 50.34033203 C20.12783469 61.07607864 12.84582747 70.45172975 2.3203125 75.4375 C-8.14362068 79.70629159 -19.22885719 81.28051598 -30.14453125 77.45703125 C-34.12364377 75.7828565 -37.63656662 73.83214716 -41.08203125 71.20703125 C-41.88640625 70.67078125 -42.69078125 70.13453125 -43.51953125 69.58203125 C-51.88286853 61.83064548 -56.16684562 52.17008971 -57.4609375 40.91015625 C-57.88649802 29.43374995 -54.61262878 19.18605561 -46.76953125 10.70703125 C-45.88265625 9.88203125 -44.99578125 9.05703125 -44.08203125 8.20703125 C-43.38013672 7.48 -43.38013672 7.48 -42.6640625 6.73828125 C-32.20253833 -3.38744091 -13.11070935 -7.17665522 0 0 Z " fill="#1A75BD" transform="translate(255.08203125,461.79296875)"/>
<path d="M0 0 C0.33 0 0.66 0 1 0 C1.66195736 7.14913945 -0.0069288 12.03468196 -4 18 C-8.56128358 23.40072158 -13.12063021 25.82731027 -19.99609375 27.296875 C-20.65738281 27.52890625 -21.31867188 27.7609375 -22 28 C-22.33 28.99 -22.66 29.98 -23 31 C-26.18706942 29.56438314 -28.62169105 27.79733671 -31.25 25.5 C-32.30960938 24.58734375 -32.30960938 24.58734375 -33.390625 23.65625 C-35 22 -35 22 -35 20 C-33.06441401 19.32779649 -31.12645628 18.66241923 -29.1875 18 C-28.10855469 17.62875 -27.02960938 17.2575 -25.91796875 16.875 C-23 16 -23 16 -20 16 C-20 16.66 -20 17.32 -20 18 C-13.78291417 15.07431255 -11.26156625 11.94899912 -8 6 C-7.34 5.01 -6.68 4.02 -6 3 C-4.68 3.66 -3.36 4.32 -2 5 C-1.34 3.35 -0.68 1.7 0 0 Z " fill="#F2F8FC" transform="translate(264,498)"/>
<path d="M0 0 C0 0.66 0 1.32 0 2 C0.5775 2.0825 1.155 2.165 1.75 2.25 C4.61239404 3.20413135 5.88585379 4.88585379 8 7 C10.06874034 7.6425235 10.06874034 7.6425235 12 8 C11.69147815 9.958964 11.3780582 11.91715713 11.0625 13.875 C10.88847656 14.96554687 10.71445312 16.05609375 10.53515625 17.1796875 C10 20 10 20 9 22 C3.67302761 20.54718935 0.63597198 16.91888622 -3 13 C-2.34 12.67 -1.68 12.34 -1 12 C-4.02744358 8.66981206 -6.45175616 7.10027486 -11.015625 6.8046875 C-12.61664063 6.83949219 -12.61664063 6.83949219 -14.25 6.875 C-15.86648437 6.90207031 -15.86648437 6.90207031 -17.515625 6.9296875 C-18.74539062 6.96449219 -18.74539062 6.96449219 -20 7 C-20 5.02 -20 3.04 -20 1 C-22.97 1.66 -25.94 2.32 -29 3 C-20.26323547 -4.64466896 -10.12931729 -4.42006573 0 0 Z " fill="#F0F7FB" transform="translate(252,477)"/>
<path d="M0 0 C-0.66 4.29 -1.32 8.58 -2 13 C-3.32 13.33 -4.64 13.66 -6 14 C-5.74273307 15.89772191 -5.46856661 17.79315677 -5.1875 19.6875 C-5.03667969 20.74324219 -4.88585937 21.79898437 -4.73046875 22.88671875 C-3.9686268 26.13371358 -2.93308756 28.2975728 -1 31 C-0.34 31.33 0.32 31.66 1 32 C1 32.66 1 33.32 1 34 C-1.475 34.495 -1.475 34.495 -4 35 C-3.195625 35.78375 -2.39125 36.5675 -1.5625 37.375 C1 40 1 40 2 42 C-2.91845716 40.74228024 -5.18389862 39.21326697 -8.25 35.1875 C-8.91515625 34.33542969 -9.5803125 33.48335937 -10.265625 32.60546875 C-13.58215738 27.62320051 -14.25787139 23.91906815 -14.1875 17.9375 C-14.18105469 16.72964844 -14.17460937 15.52179688 -14.16796875 14.27734375 C-14 11 -14 11 -13.42578125 8.75390625 C-12.7805408 6.77320117 -12.7805408 6.77320117 -14 4 C-12.23141309 3.32739649 -10.46003984 2.66211605 -8.6875 2 C-7.70136719 1.62875 -6.71523437 1.2575 -5.69921875 0.875 C-3 0 -3 0 0 0 Z " fill="#F7F9FC" transform="translate(228,482)"/>
</svg>
